<?xml version="1.0" encoding="UTF-8"?>
<svg id="Layer_1" xmlns="http://www.w3.org/2000/svg" version="1.1" viewBox="0 0 512 512">
  <!-- Generator: Adobe Illustrator 29.3.1, SVG Export Plug-In . SVG Version: 2.1.0 Build 151)  -->
  <path d="M368.9,142.9c17.5,17.5,30.1,38,37.8,59.8,5.9,16.7,24.2,25.4,40.8,19.5s25.4-24.2,19.5-40.8c-10.8-30.6-28.4-59.3-52.9-83.7-87.1-87.2-228.2-87.6-315.8-1.1l-41.6-41.6c-6.9-6.9-17.2-8.9-26.2-5.2s-14.8,12.5-14.8,22.2v128c0,13.3,10.7,24,24,24h127.9c9.7,0,18.5-5.8,22.2-14.8s1.7-19.3-5.2-26.2l-41.1-41.1c62.6-61.5,163.1-61.2,225.3,1h.1ZM495.8,312c0-13.3-10.7-24-24-24h-127.9c-9.7,0-18.5,5.8-22.2,14.8s-1.7,19.3,5.2,26.2l41.1,41.1c-62.6,61.5-163.1,61.2-225.3-1-17.5-17.5-30.1-38-37.8-59.8-5.9-16.7-24.2-25.4-40.8-19.5s-25.4,24.2-19.5,40.8c10.7,30.7,28.4,59.4,52.8,83.8,87.2,87.2,228.3,87.5,315.8,1l41.6,41.6c6.9,6.9,17.2,8.9,26.2,5.2s14.8-12.5,14.8-22.2v-127.9h0Z"/>
</svg>